<svg width="48" height="48" viewBox="0 0 48 48" fill="none" xmlns="http://www.w3.org/2000/svg">
<g clip-path="url(#clip0_671_9203)">
<path d="M41.9999 39.14L39.1459 41.996L26.2619 29.112L29.1219 26.256L41.9999 39.14ZM26.2399 6C21.0799 6 15.9199 7.96 11.9599 11.9L11.9399 11.92C4.03989 19.82 4.03989 32.64 11.9399 40.54L40.5399 11.92C36.5999 7.98 31.4199 6 26.2399 6ZM12.2799 34.54C10.7999 32.06 9.99989 29.22 9.99989 26.24C9.99989 24.38 10.3199 22.6 10.9199 20.9C11.2999 24.72 12.6999 28.48 15.0599 31.78L12.2799 34.54ZM17.9599 28.86C15.2599 24.76 14.2399 19.86 15.1999 15.2C16.3599 14.96 17.5199 14.84 18.6999 14.84C22.2999 14.84 25.7999 15.94 28.8599 17.96L17.9599 28.86ZM20.8999 10.92C22.5999 10.32 24.3799 10 26.2399 10C29.2199 10 32.0599 10.8 34.5399 12.28L31.7599 15.06C28.4599 12.7 24.7199 11.3 20.8999 10.92V10.92Z" fill="white"/>
</g>
<defs>
<clipPath id="clip0_671_9203">
<rect width="48" height="48" fill="white"/>
</clipPath>
</defs>
</svg>
