<svg width="48" height="48" viewBox="0 0 48 48" fill="none" xmlns="http://www.w3.org/2000/svg">
<g clip-path="url(#clip0_671_9220)">
<path d="M26 6V8H22V6H26ZM24 20.22L34.76 23.76L39.54 25.32L37.3 33.26C36.22 32.66 35.42 31.84 35.02 31.38L32 27.92L28.98 31.36C28.3 32.16 26.42 34 24 34C21.58 34 19.7 32.16 19.02 31.36L16 27.92L12.98 31.36C12.58 31.82 11.78 32.62 10.7 33.22L8.44002 25.3L13.24 23.72L24 20.22ZM30 2H18V8H12C9.80002 8 8.00002 9.8 8.00002 12V21.24L5.42002 22.08C4.90002 22.24 4.46002 22.6 4.22002 23.08C3.98002 23.56 3.92002 24.12 4.10002 24.64L7.90002 38H8.00002C11.2 38 14.04 36.24 16 34C17.96 36.24 20.8 38 24 38C27.2 38 30.04 36.24 32 34C33.96 36.24 36.8 38 40 38H40.1L43.88 24.64C44.04 24.12 44 23.56 43.76 23.08C43.52 22.6 43.08 22.24 42.56 22.08L40 21.24V12C40 9.8 38.2 8 36 8H30V2ZM12 19.94V12H36V19.94L24 16L12 19.94ZM32 39.36C29.56 41.06 26.78 41.92 24 41.92C21.22 41.92 18.44 41.06 16 39.36C13.56 41.06 10.78 42 8.00002 42H4.00002V46H8.00002C10.76 46 13.48 45.3 16 44.02C18.52 45.3 21.26 45.96 24 45.96C26.74 45.96 29.48 45.32 32 44.02C34.52 45.32 37.24 46 40 46H44V42H40C37.22 42 34.44 41.06 32 39.36Z" fill="white"/>
</g>
<defs>
<clipPath id="clip0_671_9220">
<rect width="48" height="48" fill="white"/>
</clipPath>
</defs>
</svg>
