<svg width="48" height="48" viewBox="0 0 48 48" fill="none" xmlns="http://www.w3.org/2000/svg">
<g clip-path="url(#clip0_671_9241)">
<path d="M38 6H10C7.8 6 6 7.8 6 10V38C6 40.2 7.8 42 10 42H38C40.2 42 42 40.2 42 38V10C42 7.8 40.2 6 38 6ZM38 38H10V10H38V38Z" fill="white"/>
<path d="M15 36C16.6569 36 18 34.6569 18 33C18 31.3431 16.6569 30 15 30C13.3431 30 12 31.3431 12 33C12 34.6569 13.3431 36 15 36Z" fill="white"/>
<path d="M15 18C16.6569 18 18 16.6569 18 15C18 13.3431 16.6569 12 15 12C13.3431 12 12 13.3431 12 15C12 16.6569 13.3431 18 15 18Z" fill="white"/>
<path d="M24 27C25.6569 27 27 25.6569 27 24C27 22.3431 25.6569 21 24 21C22.3431 21 21 22.3431 21 24C21 25.6569 22.3431 27 24 27Z" fill="white"/>
<path d="M33 36C34.6569 36 36 34.6569 36 33C36 31.3431 34.6569 30 33 30C31.3431 30 30 31.3431 30 33C30 34.6569 31.3431 36 33 36Z" fill="white"/>
<path d="M33 18C34.6569 18 36 16.6569 36 15C36 13.3431 34.6569 12 33 12C31.3431 12 30 13.3431 30 15C30 16.6569 31.3431 18 33 18Z" fill="white"/>
</g>
<defs>
<clipPath id="clip0_671_9241">
<rect width="48" height="48" fill="white"/>
</clipPath>
</defs>
</svg>
