<svg width="48" height="48" viewBox="0 0 48 48" fill="none" xmlns="http://www.w3.org/2000/svg">
<g clip-path="url(#clip0_671_9231)">
<path fill-rule="evenodd" clip-rule="evenodd" d="M40 6H8C5.8 6 4 7.8 4 10V38C4 40.2 5.8 42 8 42H40C42.2 42 44 40.2 44 38V10C44 7.8 42.2 6 40 6ZM40 38H8V10H40V38Z" fill="white"/>
<path fill-rule="evenodd" clip-rule="evenodd" d="M38.82 20.84L35.98 18L29.64 24.34L26.82 21.5L24 24.32L29.64 30L38.82 20.84Z" fill="white"/>
<path d="M20 14H10V18H20V14Z" fill="white"/>
<path d="M20 22H10V26H20V22Z" fill="white"/>
<path d="M20 30H10V34H20V30Z" fill="white"/>
</g>
<defs>
<clipPath id="clip0_671_9231">
<rect width="48" height="48" fill="white"/>
</clipPath>
</defs>
</svg>
