<svg width="48" height="48" viewBox="0 0 48 48" fill="none" xmlns="http://www.w3.org/2000/svg">
<g clip-path="url(#clip0_671_9223)">
<path d="M11 36C12.6569 36 14 34.6569 14 33C14 31.3431 12.6569 30 11 30C9.34315 30 8 31.3431 8 33C8 34.6569 9.34315 36 11 36Z" fill="white"/>
<path d="M25 36C26.6569 36 28 34.6569 28 33C28 31.3431 26.6569 30 25 30C23.3431 30 22 31.3431 22 33C22 34.6569 23.3431 36 25 36Z" fill="white"/>
<path d="M32 2C27.22 2 23.02 4.4 20.5 8.04C19.68 8.02 18.86 8 18 8C9.16 8 2 9 2 16V36C2 37.76 2.78 39.34 4 40.44V44C4 45.1 4.9 46 6 46H8C9.1 46 10 45.1 10 44V42H26V44C26 45.1 26.9 46 28 46H30C31.1 46 32 45.1 32 44V40.44C33.22 39.34 34 37.76 34 36V29.84C40.78 28.86 46 23.06 46 16C46 8.26 39.74 2 32 2ZM18 12H18.58C18.4 12.64 18.26 13.32 18.16 13.98H6.68C7.78 12.92 10.62 12 18 12ZM6 17.98H18.16C18.48 20.2 19.3 22.24 20.52 24H6V17.98ZM30 36C30 36.74 29.58 37.24 29.32 37.46L28.74 38H7.26L6.68 37.46C6.42 37.24 6 36.74 6 36V28H24.82C26.38 28.94 28.12 29.58 30 29.84V36ZM32 26C26.48 26 22 21.52 22 16C22 10.48 26.48 6 32 6C37.52 6 42 10.48 42 16C42 21.52 37.52 26 32 26ZM33 8H30V18L37.24 22.32L38.74 19.86L33 16.5V8Z" fill="white"/>
</g>
<defs>
<clipPath id="clip0_671_9223">
<rect width="48" height="48" fill="white"/>
</clipPath>
</defs>
</svg>
