<svg width="48" height="48" viewBox="0 0 48 48" fill="none" xmlns="http://www.w3.org/2000/svg">
<g clip-path="url(#clip0_671_9191)">
<path d="M2 43.96C2 45.08 2.9 45.98 4.02 45.98H30C31.12 45.98 32.02 45.08 32.02 43.96V42H2V43.96ZM17 17.98C9.5 17.98 2 22 2 30H32C32 22 24.5 17.98 17 17.98ZM7.24 26C9.46 22.9 14.18 21.98 17 21.98C19.82 21.98 24.54 22.9 26.76 26H7.24ZM2 34H32V38H2V34ZM36 10V2H32V10H22L22.46 14H41.58L38.78 42H36V46H39.44C41.12 46 42.5 44.7 42.7 43.06L46 10H36Z" fill="white"/>
</g>
<defs>
<clipPath id="clip0_671_9191">
<rect width="48" height="48" fill="white"/>
</clipPath>
</defs>
</svg>
