<svg width="48" height="48" viewBox="0 0 48 48" fill="none" xmlns="http://www.w3.org/2000/svg">
<g clip-path="url(#clip0_671_9212)">
<path d="M24 12C26.2091 12 28 10.2091 28 8C28 5.79086 26.2091 4 24 4C21.7909 4 20 5.79086 20 8C20 10.2091 21.7909 12 24 12Z" fill="white"/>
<path d="M31.78 16.22C31 15.44 29.66 14 27.06 14C26.64 14 24.22 14 21.98 14C16.48 13.98 12 9.5 12 4H8C8 10.32 12.22 15.68 18 17.42V44H22V32H26V44H30V20.1L37.9 28L40.72 25.18L31.78 16.22Z" fill="white"/>
</g>
<defs>
<clipPath id="clip0_671_9212">
<rect width="48" height="48" fill="white"/>
</clipPath>
</defs>
</svg>
